<svg width="67" height="27" viewBox="0 0 67 27" fill="none" xmlns="http://www.w3.org/2000/svg">
<path d="M0.481934 5.30745L0.532316 5.51978C2.38211 5.09512 2.86435 6.59582 3.83962 10.8352L6.0349 20.3937C7.01017 24.6367 7.2333 26.1949 5.38351 26.6196L5.4303 26.8355L11.246 25.4968L11.1956 25.2844C9.3422 25.7091 6.99938 23.5966 5.55985 17.3311L2.95432 6.00562L21.355 23.6254L21.571 23.5786L17.8966 7.60349C16.9213 3.36049 16.6982 1.80221 18.5516 1.37755L18.5012 1.16162L12.6891 2.50038L12.7395 2.71631C14.5893 2.28805 16.9357 4.40055 18.3752 10.6661L20.5345 20.0518L4.24989 4.44014L0.481934 5.30745Z" fill="#6E34B8"/>
<path d="M21.7233 1.28387C23.6162 1.10393 23.8933 2.65502 24.3036 6.98439L25.2249 16.7516C25.6352 21.0845 25.6496 22.6572 23.7602 22.8371L23.7782 23.0567L29.7162 22.4953L29.6982 22.2757C27.8052 22.4521 27.5245 20.9046 27.1179 16.5716L26.1966 6.80804C25.7863 2.47508 25.7719 0.902398 27.6613 0.722457L27.6397 0.50293L21.7017 1.06434L21.7233 1.28387Z" fill="#6E34B8"/>
<path d="M30.8045 0L30.7973 0.219527C32.6974 0.291503 32.7694 1.86418 32.6039 6.21514L32.2368 16.0147C32.0713 20.3621 31.8805 21.9275 29.9803 21.8556L29.9731 22.0751L35.9328 22.2982L35.94 22.0787C34.0434 22.0067 32.3304 19.358 32.5715 12.9341L33.0105 1.32076L46.1822 23.1296L46.4017 23.1367L47.0207 6.75857C47.1827 2.4076 47.377 0.84572 49.2736 0.917697L49.2844 0.698169L43.3211 0.471444L43.3139 0.69457C45.2141 0.766547 46.9235 3.41527 46.6824 9.83915L46.3189 19.466L34.6696 0.147551L30.8045 0Z" fill="#6E34B8"/>
<path d="M49.1449 19.0035C48.6266 21.242 49.5911 23.5308 52.0887 24.1103C56.3713 25.1035 59.7685 21.9042 60.9813 16.6751C61.2225 15.6423 61.3772 14.7713 61.4528 14.0624L62.4856 21.717C62.7987 24.0815 62.5 25.8485 59.4662 25.1431L59.4195 25.359L66.4767 27.0001L66.5271 26.7842C65.2135 26.4783 64.7997 25.1359 64.4038 22.5484L61.7407 2.76572L61.5248 2.71533C59.3403 5.97226 58.0483 7.91921 55.9322 11.079C55.5867 11.5864 55.5579 12.1946 56.1625 12.335C57.3897 12.6193 58.5593 10.5104 59.5922 10.7479C59.8693 10.8127 60.0672 11.043 59.9737 11.4496C59.4518 13.6881 50.3756 13.7097 49.1449 19.0035ZM51.0702 19.0215C52.3046 13.7061 59.531 14.4331 60.2004 11.5468C60.33 10.989 60.0924 10.6399 59.6858 10.5427C58.5449 10.28 57.2242 12.3529 56.2345 12.1226C55.889 12.0434 55.7775 11.7447 56.2309 11.0574L60.2364 5.04736L61.2441 12.5185C61.3376 13.8752 61.1253 15.0736 60.7582 16.6679C59.9377 20.1948 57.2134 24.211 53.6182 23.3761C51.5093 22.8867 50.5988 21.0441 51.0702 19.0215Z" fill="#6E34B8"/>
</svg>
